<svg version="1.1" id="Layer_1" xmlns="http://www.w3.org/2000/svg" xmlns:xlink="http://www.w3.org/1999/xlink" x="0px" y="0px"
	 width="100%" viewBox="0 0 429 198" enable-background="new 0 0 429 198" xml:space="preserve">
<path fill="#010101" opacity="1.000000" stroke="none" 
	d="
M406.000000,199.000000 
	C270.666718,199.000000 135.833420,199.000000 1.000090,199.000000 
	C1.000060,133.000061 1.000060,67.000122 1.000030,1.000135 
	C143.999893,1.000090 286.999786,1.000090 429.999756,1.000045 
	C429.999847,66.999878 429.999847,132.999756 429.999939,198.999817 
	C422.166687,199.000000 414.333344,199.000000 406.000000,199.000000 
M88.638618,126.330360 
	C87.798531,124.541527 87.384743,122.289551 86.038612,121.050499 
	C81.964935,117.300896 77.529785,113.944016 72.798721,110.077095 
	C78.068176,105.848412 82.660965,102.309113 87.040482,98.523109 
	C87.902954,97.777527 87.942841,96.080383 88.362091,94.822090 
	C87.167427,94.931053 85.643585,94.604713 84.831146,95.219109 
	C79.257942,99.433754 73.767197,103.767136 68.444733,108.291489 
	C67.769127,108.865784 67.666031,111.511772 68.243027,111.948212 
	C75.068260,117.110893 82.073471,122.035645 89.383179,127.761452 
	C89.064735,129.978775 88.746284,132.196106 88.427841,134.413437 
	C88.969063,134.607956 89.510284,134.802460 90.051498,134.996979 
	C90.962852,133.637985 92.152321,132.389084 92.740799,130.902313 
	C96.808075,120.626389 100.695160,110.279015 104.783745,100.011780 
	C105.506729,98.196220 106.902321,96.648499 108.397247,95.522629 
	C113.667450,100.429016 118.937645,105.335396 124.550201,110.560509 
	C119.691994,114.430405 114.957947,118.061562 110.432701,121.936569 
	C109.629684,122.624184 109.695450,124.326363 109.360046,125.560051 
	C110.520027,125.455536 112.000732,125.774506 112.788185,125.178116 
	C118.094307,121.159424 123.226753,116.912537 128.471603,112.811386 
	C131.028320,110.812195 130.704285,109.135101 128.308350,107.276886 
	C123.310020,103.400383 118.497414,99.270958 113.347641,95.612648 
	C112.061371,94.698914 109.784004,95.180336 107.438095,94.305489 
	C107.619362,93.334465 107.946007,92.364067 107.950142,91.392288 
	C107.957642,89.631630 107.772911,87.870155 107.668442,86.109016 
	C106.523148,87.503448 104.956573,88.725662 104.304153,90.321579 
	C101.175308,97.975281 98.402733,105.774460 95.283600,113.432365 
	C93.402206,118.051453 91.118729,122.506767 88.638618,126.330360 
M202.897049,130.242340 
	C203.979996,129.047302 205.994522,127.861702 206.006760,126.655800 
	C206.203766,107.240883 206.145889,87.823372 206.145889,68.226105 
	C201.851166,68.226105 197.947418,68.226105 193.647842,68.226105 
	C193.647842,74.185104 193.647842,79.923531 193.647842,85.078827 
	C189.448334,85.078827 185.650742,84.865173 181.884537,85.118385 
	C170.004868,85.917091 161.966537,94.059235 160.715836,106.327827 
	C159.451080,118.733994 165.860107,128.916748 177.167831,131.998322 
	C185.596161,134.295212 193.960709,133.416931 202.897049,130.242340 
M257.658264,131.035126 
	C269.289185,134.926254 280.812714,133.133530 292.406464,131.033447 
	C292.406464,121.222733 292.666138,112.055641 292.341003,102.909348 
	C291.930969,91.374336 286.579407,86.070580 275.077637,85.188644 
	C272.595886,84.998352 270.070435,85.011429 267.590576,85.225655 
	C256.006592,86.226311 256.006744,86.262489 253.333786,97.428001 
	C253.270004,97.694427 253.480331,98.026466 253.406815,97.757774 
	C259.739716,97.154938 265.941528,96.110115 272.143616,96.108528 
	C277.773651,96.107086 279.806549,99.087181 279.293182,105.096802 
	C273.533173,105.096802 267.680084,104.590416 261.953918,105.226402 
	C254.968491,106.002235 250.789856,110.132607 249.690430,115.868744 
	C248.437119,122.407585 250.622177,126.904106 257.658264,131.035126 
M371.459656,121.417480 
	C371.368408,114.432098 371.536926,107.431129 371.119080,100.465340 
	C370.615479,92.070488 366.444733,86.925484 358.048706,86.066086 
	C351.250305,85.370224 344.246765,86.417038 337.365997,87.041496 
	C336.197662,87.147522 334.698212,88.837273 334.211761,90.121193 
	C333.238220,92.690857 332.859802,95.485992 332.334137,97.761742 
	C338.673584,97.153084 344.856567,96.115425 351.042603,96.096611 
	C356.669312,96.079498 358.672119,98.927620 358.454285,103.961075 
	C351.304565,104.698395 344.147888,104.847717 337.277252,106.326309 
	C331.506165,107.568268 328.540405,112.458488 328.330048,118.180641 
	C328.118988,123.923325 330.808136,128.794754 336.267609,130.813889 
	C347.937531,135.129868 359.666168,133.158615 371.459625,131.033493 
	C371.459625,127.704308 371.459625,125.045120 371.459656,121.417480 
M245.012054,80.509727 
	C245.012054,76.408585 245.012054,72.307442 245.012054,68.264816 
	C240.555313,68.264816 236.652115,68.264816 232.396545,68.264816 
	C232.396545,70.333626 232.398209,72.139473 232.396286,73.945312 
	C232.383011,86.424667 232.504227,98.906219 232.302521,111.382530 
	C232.188660,118.425133 228.083145,121.732292 221.176483,120.433846 
	C217.673218,119.775246 214.323181,118.301643 210.596405,117.097115 
	C209.795090,119.844475 208.803360,122.633842 208.238602,125.507133 
	C208.036865,126.533554 208.525635,128.391312 209.280945,128.803421 
	C217.519699,133.298584 226.230347,134.870712 235.091019,131.045502 
	C242.861008,127.691132 244.877029,120.674316 244.964539,112.955765 
	C245.083389,102.474228 245.005554,91.990456 245.012054,80.509727 
M310.297699,110.528076 
	C310.297699,106.745178 310.297699,102.962280 310.297699,98.851486 
	C315.510895,98.511795 320.233032,98.204102 324.773560,97.908241 
	C324.773560,93.962852 324.773560,90.394058 324.773560,86.371170 
	C315.672516,86.851265 306.940002,87.311920 298.079529,87.779327 
	C298.079529,103.001419 298.079529,117.365097 298.079529,131.722885 
	C302.285431,131.722885 306.198822,131.722885 310.297699,131.722885 
	C310.297699,124.803459 310.297699,118.160988 310.297699,110.528076 
z"/>
<path fill="#FCFCFC" opacity="1.000000" stroke="none" 
	d="
M202.533890,130.446274 
	C193.960709,133.416931 185.596161,134.295212 177.167831,131.998322 
	C165.860107,128.916748 159.451080,118.733994 160.715836,106.327827 
	C161.966537,94.059235 170.004868,85.917091 181.884537,85.118385 
	C185.650742,84.865173 189.448334,85.078827 193.647842,85.078827 
	C193.647842,79.923531 193.647842,74.185104 193.647842,68.226105 
	C197.947418,68.226105 201.851166,68.226105 206.145889,68.226105 
	C206.145889,87.823372 206.203766,107.240883 206.006760,126.655800 
	C205.994522,127.861702 203.979996,129.047302 202.533890,130.446274 
M185.625977,96.098114 
	C180.224930,96.334801 175.914337,98.374054 174.011856,103.757851 
	C172.113327,109.130455 172.553513,114.422752 176.699371,118.555801 
	C181.562408,123.403824 187.540207,122.385422 193.501678,120.883575 
	C193.501678,112.919716 193.501678,105.178055 193.501678,97.207077 
	C191.028610,96.831726 188.752548,96.486267 185.625977,96.098114 
z"/>
<path fill="#F9F9F9" opacity="1.000000" stroke="none" 
	d="
M257.297241,130.907257 
	C250.622177,126.904106 248.437119,122.407585 249.690430,115.868744 
	C250.789856,110.132607 254.968491,106.002235 261.953918,105.226402 
	C267.680084,104.590416 273.533173,105.096802 279.293182,105.096802 
	C279.806549,99.087181 277.773651,96.107086 272.143616,96.108528 
	C265.941528,96.110115 259.739716,97.154938 253.406815,97.757774 
	C253.480331,98.026466 253.270004,97.694427 253.333786,97.428001 
	C256.006744,86.262489 256.006592,86.226311 267.590576,85.225655 
	C270.070435,85.011429 272.595886,84.998352 275.077637,85.188644 
	C286.579407,86.070580 291.930969,91.374336 292.341003,102.909348 
	C292.666138,112.055641 292.406464,121.222733 292.406464,131.033447 
	C280.812714,133.133530 269.289185,134.926254 257.297241,130.907257 
M270.742035,112.594887 
	C269.921600,112.679512 269.100403,112.757317 268.280853,112.849968 
	C265.042206,113.216125 261.833984,114.556702 262.601044,118.106865 
	C263.027191,120.079247 266.048340,122.400421 268.260956,122.872688 
	C271.947266,123.659515 275.923737,123.087242 279.658752,123.087242 
	C279.658752,119.226120 279.658752,116.306763 279.658752,113.079910 
	C276.860779,112.891769 274.261993,112.717026 270.742035,112.594887 
z"/>
<path fill="#F9F9F9" opacity="1.000000" stroke="none" 
	d="
M371.459656,121.901703 
	C371.459625,125.045120 371.459625,127.704308 371.459625,131.033493 
	C359.666168,133.158615 347.937531,135.129868 336.267609,130.813889 
	C330.808136,128.794754 328.118988,123.923325 328.330048,118.180641 
	C328.540405,112.458488 331.506165,107.568268 337.277252,106.326309 
	C344.147888,104.847717 351.304565,104.698395 358.454285,103.961075 
	C358.672119,98.927620 356.669312,96.079498 351.042603,96.096611 
	C344.856567,96.115425 338.673584,97.153084 332.334137,97.761742 
	C332.859802,95.485992 333.238220,92.690857 334.211761,90.121193 
	C334.698212,88.837273 336.197662,87.147522 337.365997,87.041496 
	C344.246765,86.417038 351.250305,85.370224 358.048706,86.066086 
	C366.444733,86.925484 370.615479,92.070488 371.119080,100.465340 
	C371.536926,107.431129 371.368408,114.432098 371.459656,121.901703 
M352.519775,123.294983 
	C354.607330,123.148170 356.694885,123.001350 358.647949,122.863998 
	C358.647949,119.255913 358.647949,116.313377 358.647949,113.003090 
	C354.305115,113.003090 350.101898,112.500038 346.123871,113.227859 
	C344.296936,113.562096 341.652832,116.329330 341.675537,117.961342 
	C341.698944,119.642334 344.276184,121.698875 346.190002,122.807014 
	C347.614563,123.631866 349.762909,123.206657 352.519775,123.294983 
z"/>
<path fill="#F7F7F7" opacity="1.000000" stroke="none" 
	d="
M245.012054,81.008682 
	C245.005554,91.990456 245.083389,102.474228 244.964539,112.955765 
	C244.877029,120.674316 242.861008,127.691132 235.091019,131.045502 
	C226.230347,134.870712 217.519699,133.298584 209.280945,128.803421 
	C208.525635,128.391312 208.036865,126.533554 208.238602,125.507133 
	C208.803360,122.633842 209.795090,119.844475 210.596405,117.097115 
	C214.323181,118.301643 217.673218,119.775246 221.176483,120.433846 
	C228.083145,121.732292 232.188660,118.425133 232.302521,111.382530 
	C232.504227,98.906219 232.383011,86.424667 232.396286,73.945312 
	C232.398209,72.139473 232.396545,70.333626 232.396545,68.264816 
	C236.652115,68.264816 240.555313,68.264816 245.012054,68.264816 
	C245.012054,72.307442 245.012054,76.408585 245.012054,81.008682 
z"/>
<path fill="#FEFEFE" opacity="1.000000" stroke="none" 
	d="
M310.297699,111.023300 
	C310.297699,118.160988 310.297699,124.803459 310.297699,131.722885 
	C306.198822,131.722885 302.285431,131.722885 298.079529,131.722885 
	C298.079529,117.365097 298.079529,103.001419 298.079529,87.779327 
	C306.940002,87.311920 315.672516,86.851265 324.773560,86.371170 
	C324.773560,90.394058 324.773560,93.962852 324.773560,97.908241 
	C320.233032,98.204102 315.510895,98.511795 310.297699,98.851486 
	C310.297699,102.962280 310.297699,106.745178 310.297699,111.023300 
z"/>
<path fill="#28AA77" opacity="1.000000" stroke="none" 
	d="
M107.987305,94.977097 
	C106.902321,96.648499 105.506729,98.196220 104.783745,100.011780 
	C100.695160,110.279015 96.808075,120.626389 92.740799,130.902313 
	C92.152321,132.389084 90.962852,133.637985 90.051498,134.996979 
	C89.510284,134.802460 88.969063,134.607956 88.427841,134.413437 
	C88.746284,132.196106 89.064735,129.978775 89.190285,127.379356 
	C88.997391,126.997261 89.015923,127.035667 89.015923,127.035667 
	C91.118729,122.506767 93.402206,118.051453 95.283600,113.432365 
	C98.402733,105.774460 101.175308,97.975281 104.304153,90.321579 
	C104.956573,88.725662 106.523148,87.503448 107.668442,86.109016 
	C107.772911,87.870155 107.957642,89.631630 107.950142,91.392288 
	C107.946007,92.364067 107.619362,93.334465 107.721313,94.660172 
	C108.004539,95.014854 107.987305,94.977097 107.987305,94.977097 
z"/>
<path fill="#21986D" opacity="1.000000" stroke="none" 
	d="
M89.014374,127.010101 
	C82.073471,122.035645 75.068260,117.110893 68.243027,111.948212 
	C67.666031,111.511772 67.769127,108.865784 68.444733,108.291489 
	C73.767197,103.767136 79.257942,99.433754 84.831146,95.219109 
	C85.643585,94.604713 87.167427,94.931053 88.362091,94.822090 
	C87.942841,96.080383 87.902954,97.777527 87.040482,98.523109 
	C82.660965,102.309113 78.068176,105.848412 72.798721,110.077095 
	C77.529785,113.944016 81.964935,117.300896 86.038612,121.050499 
	C87.384743,122.289551 87.798531,124.541527 88.827271,126.683014 
	C89.015923,127.035667 88.997391,126.997261 89.014374,127.010101 
z"/>
<path fill="#229B6E" opacity="1.000000" stroke="none" 
	d="
M107.983353,95.017685 
	C109.784004,95.180336 112.061371,94.698914 113.347641,95.612648 
	C118.497414,99.270958 123.310020,103.400383 128.308350,107.276886 
	C130.704285,109.135101 131.028320,110.812195 128.471603,112.811386 
	C123.226753,116.912537 118.094307,121.159424 112.788185,125.178116 
	C112.000732,125.774506 110.520027,125.455536 109.360046,125.560051 
	C109.695450,124.326363 109.629684,122.624184 110.432701,121.936569 
	C114.957947,118.061562 119.691994,114.430405 124.550201,110.560509 
	C118.937645,105.335396 113.667450,100.429016 108.192276,95.249863 
	C107.987305,94.977097 108.004539,95.014854 107.983353,95.017685 
z"/>
<path fill="#090909" opacity="1.000000" stroke="none" 
	d="
M186.051224,96.119461 
	C188.752548,96.486267 191.028610,96.831726 193.501678,97.207077 
	C193.501678,105.178055 193.501678,112.919716 193.501678,120.883575 
	C187.540207,122.385422 181.562408,123.403824 176.699371,118.555801 
	C172.553513,114.422752 172.113327,109.130455 174.011856,103.757851 
	C175.914337,98.374054 180.224930,96.334801 186.051224,96.119461 
z"/>
<path fill="#070707" opacity="1.000000" stroke="none" 
	d="
M271.202637,112.568588 
	C274.261993,112.717026 276.860779,112.891769 279.658752,113.079910 
	C279.658752,116.306763 279.658752,119.226120 279.658752,123.087242 
	C275.923737,123.087242 271.947266,123.659515 268.260956,122.872688 
	C266.048340,122.400421 263.027191,120.079247 262.601044,118.106865 
	C261.833984,114.556702 265.042206,113.216125 268.280853,112.849968 
	C269.100403,112.757317 269.921600,112.679512 271.202637,112.568588 
z"/>
<path fill="#060606" opacity="1.000000" stroke="none" 
	d="
M352.054321,123.316589 
	C349.762909,123.206657 347.614563,123.631866 346.190002,122.807014 
	C344.276184,121.698875 341.698944,119.642334 341.675537,117.961342 
	C341.652832,116.329330 344.296936,113.562096 346.123871,113.227859 
	C350.101898,112.500038 354.305115,113.003090 358.647949,113.003090 
	C358.647949,116.313377 358.647949,119.255913 358.647949,122.863998 
	C356.694885,123.001350 354.607330,123.148170 352.054321,123.316589 
z"/>
</svg>