<svg version="1.1" id="Layer_1" xmlns="http://www.w3.org/2000/svg" xmlns:xlink="http://www.w3.org/1999/xlink" x="0px" y="0px"
	 width="100%" viewBox="0 0 429 198" enable-background="new 0 0 429 198" xml:space="preserve">
<path fill="#010101" opacity="1.000000" stroke="none" 
	d="
M405.000000,199.000000 
	C270.000031,199.000000 135.500076,199.000000 1.000090,199.000000 
	C1.000060,133.000061 1.000060,67.000122 1.000030,1.000134 
	C143.999893,1.000090 286.999786,1.000090 429.999756,1.000045 
	C429.999847,66.999878 429.999847,132.999756 429.999939,198.999817 
	C421.833344,199.000000 413.666656,199.000000 405.000000,199.000000 
M88.567253,126.363647 
	C87.767082,124.568054 87.414726,122.280464 86.083267,121.068581 
	C81.994247,117.346764 77.530144,114.037056 72.707466,110.161873 
	C77.982071,105.916985 82.543716,102.385345 86.905411,98.621964 
	C87.814285,97.837761 87.983612,96.196426 88.493759,94.950104 
	C87.175797,95.079216 85.534958,94.752914 84.596962,95.417953 
	C80.947891,98.005089 77.539734,100.929688 74.009346,103.687004 
	C65.722900,110.158936 65.609001,110.287430 73.765205,116.560150 
	C78.648643,120.315880 83.927071,123.558006 89.381317,127.766525 
	C89.077271,129.989609 88.773232,132.212692 88.469185,134.435760 
	C89.000145,134.618454 89.531097,134.801132 90.062057,134.983826 
	C90.929176,133.760315 92.089317,132.651093 92.618057,131.295593 
	C97.854004,117.872337 103.030060,104.425026 108.085533,90.932991 
	C108.667084,89.380966 108.411545,87.515266 108.544128,85.795006 
	C107.979927,85.654053 107.415733,85.513107 106.851540,85.372154 
	C106.183685,86.542488 105.366707,87.653374 104.872528,88.892952 
	C101.989136,96.125549 99.281166,103.429405 96.315872,110.627594 
	C94.037727,116.157738 91.467636,121.567604 88.567253,126.363647 
M206.142944,106.499969 
	C206.142944,93.744141 206.142944,80.988312 206.142944,68.309410 
	C201.640961,68.309410 197.729492,68.309410 193.388885,68.309410 
	C193.388885,74.332130 193.388885,80.042473 193.388885,85.070541 
	C189.314819,85.070541 185.674454,84.879616 182.060287,85.106255 
	C171.127029,85.791855 162.735443,93.287315 160.988373,103.722954 
	C158.874176,116.351593 164.050415,127.150520 174.764313,131.172287 
	C184.561554,134.849976 194.421188,133.739365 203.923767,129.730316 
	C204.999542,129.276459 206.004959,127.299706 206.051544,125.993767 
	C206.271240,119.835884 206.145523,113.665688 206.142944,106.499969 
M292.453033,119.461502 
	C292.348541,112.976524 292.509430,106.473564 292.071503,100.011185 
	C291.540009,92.168335 287.365265,87.299591 279.587769,86.075661 
	C274.585297,85.288437 269.316040,85.273483 264.274994,85.854607 
	C254.942108,86.930450 253.659042,88.833649 253.821198,97.678314 
	C259.836761,97.109589 265.913147,96.104576 271.992371,96.086838 
	C277.577484,96.070541 279.623810,98.916855 279.484802,104.023132 
	C272.524933,104.689468 265.525360,104.757401 258.812347,106.178726 
	C252.616119,107.490639 249.579285,112.201744 249.335617,118.122490 
	C249.082108,124.282265 251.979858,129.080902 258.143188,131.147720 
	C269.549011,134.972595 280.971100,133.146896 292.452606,131.014771 
	C292.452606,127.092186 292.452606,123.768051 292.453033,119.461502 
M334.384460,88.992561 
	C333.651703,92.136230 332.918976,95.279900 332.344940,97.742668 
	C338.774841,97.125648 344.854095,96.109230 350.937347,96.084694 
	C356.613770,96.061775 358.562714,98.746056 358.533234,104.938423 
	C356.558533,104.798897 354.581665,104.419327 352.645660,104.568932 
	C347.536652,104.963737 342.308777,105.039055 337.382751,106.264717 
	C331.658875,107.688904 328.604797,112.377953 328.341095,118.093994 
	C328.068451,124.005318 330.911194,128.885376 336.677765,130.950058 
	C348.228882,135.085876 359.805359,133.110535 371.141083,131.107025 
	C371.141083,120.236130 371.299072,110.080231 371.078125,99.932587 
	C370.957611,94.398727 368.403656,89.763977 363.181641,87.580704 
	C353.694366,83.614143 344.126373,84.250862 334.384460,88.992561 
M243.995621,120.225121 
	C244.334213,117.430183 244.939148,114.637718 244.965073,111.839882 
	C245.074677,100.014839 245.011917,88.188202 245.012161,76.362144 
	C245.012222,73.604851 245.012177,70.847557 245.012177,68.338928 
	C240.444199,68.338928 236.541809,68.338928 232.399719,68.338928 
	C232.399719,70.003403 232.399826,71.316650 232.399719,72.629898 
	C232.398788,85.122200 232.479736,97.615234 232.368942,110.106567 
	C232.291031,118.890823 228.147537,122.112259 219.478180,120.119606 
	C216.493637,119.433586 213.663040,118.077721 210.764160,117.028595 
	C206.631104,129.166977 207.173508,130.140762 219.253662,132.529160 
	C231.304886,134.911819 239.385620,131.133698 243.995621,120.225121 
M305.479248,132.000198 
	C307.053925,132.000198 308.628571,132.000198 310.603455,132.000198 
	C310.603455,120.549980 310.603455,109.816071 310.603455,98.791389 
	C315.581085,98.496597 320.172913,98.224655 324.865967,97.946716 
	C324.865967,94.185005 324.865967,90.614067 324.865967,86.379669 
	C315.734985,86.867676 306.896088,87.340073 297.968811,87.817200 
	C297.968811,103.048355 297.968811,117.299538 297.968811,132.000214 
	C300.258301,132.000214 302.377777,132.000214 305.479248,132.000198 
M108.739632,95.603523 
	C110.065536,97.198845 111.204117,99.011711 112.754341,100.346512 
	C116.586021,103.645721 120.606285,106.725929 124.833778,110.121490 
	C123.198837,111.538582 122.235573,112.433083 121.211029,113.250793 
	C117.571136,116.155861 113.838303,118.951157 110.313957,121.989052 
	C109.543076,122.653549 109.487465,124.147835 109.102432,125.259964 
	C110.106422,125.439819 111.508461,126.138573 112.053673,125.720360 
	C118.446236,120.816650 124.710159,115.745239 131.754227,110.122467 
	C124.616585,104.460388 118.442497,99.483932 112.133018,94.685478 
	C111.535301,94.230896 110.088455,94.892830 108.739632,95.603523 
z"/>
<path fill="#FCFCFC" opacity="1.000000" stroke="none" 
	d="
M206.142975,106.999924 
	C206.145523,113.665688 206.271240,119.835884 206.051544,125.993767 
	C206.004959,127.299706 204.999542,129.276459 203.923767,129.730316 
	C194.421188,133.739365 184.561554,134.849976 174.764313,131.172287 
	C164.050415,127.150520 158.874176,116.351593 160.988373,103.722954 
	C162.735443,93.287315 171.127029,85.791855 182.060287,85.106255 
	C185.674454,84.879616 189.314819,85.070541 193.388885,85.070541 
	C193.388885,80.042473 193.388885,74.332130 193.388885,68.309410 
	C197.729492,68.309410 201.640961,68.309410 206.142944,68.309410 
	C206.142944,80.988312 206.142944,93.744141 206.142975,106.999924 
M185.667801,122.015442 
	C188.269730,121.719185 190.871643,121.422928 193.509567,121.122566 
	C193.509567,112.931984 193.509567,105.185997 193.509567,97.498787 
	C181.585251,94.589500 174.976440,97.492561 173.260193,106.236641 
	C171.636765,114.507744 176.040497,120.524094 185.667801,122.015442 
z"/>
<path fill="#F9F9F9" opacity="1.000000" stroke="none" 
	d="
M292.452820,119.952713 
	C292.452606,123.768051 292.452606,127.092186 292.452606,131.014771 
	C280.971100,133.146896 269.549011,134.972595 258.143188,131.147720 
	C251.979858,129.080902 249.082108,124.282265 249.335617,118.122490 
	C249.579285,112.201744 252.616119,107.490639 258.812347,106.178726 
	C265.525360,104.757401 272.524933,104.689468 279.484802,104.023132 
	C279.623810,98.916855 277.577484,96.070541 271.992371,96.086838 
	C265.913147,96.104576 259.836761,97.109589 253.821198,97.678314 
	C253.659042,88.833649 254.942108,86.930450 264.274994,85.854607 
	C269.316040,85.273483 274.585297,85.288437 279.587769,86.075661 
	C287.365265,87.299591 291.540009,92.168335 292.071503,100.011185 
	C292.509430,106.473564 292.348541,112.976524 292.452820,119.952713 
M279.145599,113.123383 
	C275.166565,113.077232 271.096802,112.520851 267.247772,113.205566 
	C265.392975,113.535515 262.690308,116.192413 262.675842,117.816154 
	C262.660797,119.501968 265.224396,122.359253 267.021942,122.680481 
	C271.128052,123.414314 275.455048,122.912338 279.793274,122.912338 
	C279.793274,119.435394 279.793274,116.616730 279.145599,113.123383 
z"/>
<path fill="#F9F9F9" opacity="1.000000" stroke="none" 
	d="
M334.560669,88.636436 
	C344.126373,84.250862 353.694366,83.614143 363.181641,87.580704 
	C368.403656,89.763977 370.957611,94.398727 371.078125,99.932587 
	C371.299072,110.080231 371.141083,120.236130 371.141083,131.107025 
	C359.805359,133.110535 348.228882,135.085876 336.677765,130.950058 
	C330.911194,128.885376 328.068451,124.005318 328.341095,118.093994 
	C328.604797,112.377953 331.658875,107.688904 337.382751,106.264717 
	C342.308777,105.039055 347.536652,104.963737 352.645660,104.568932 
	C354.581665,104.419327 356.558533,104.798897 358.533234,104.938423 
	C358.562714,98.746056 356.613770,96.061775 350.937347,96.084694 
	C344.854095,96.109230 338.774841,97.125648 332.344940,97.742668 
	C332.918976,95.279900 333.651703,92.136230 334.560669,88.636436 
M353.455078,112.621307 
	C351.296021,112.709778 349.123291,112.676208 346.981140,112.915901 
	C343.925934,113.257767 341.306488,114.502037 341.390686,118.054962 
	C341.474182,121.579506 344.180328,122.840881 347.190247,123.027824 
	C350.946136,123.261101 354.727539,123.083847 358.684082,123.083847 
	C358.684082,119.514999 358.684082,116.574875 358.684082,113.309387 
	C357.266541,113.107712 355.830994,112.903481 353.455078,112.621307 
z"/>
<path fill="#F7F7F7" opacity="1.000000" stroke="none" 
	d="
M243.926361,120.625519 
	C239.385620,131.133698 231.304886,134.911819 219.253662,132.529160 
	C207.173508,130.140762 206.631104,129.166977 210.764160,117.028595 
	C213.663040,118.077721 216.493637,119.433586 219.478180,120.119606 
	C228.147537,122.112259 232.291031,118.890823 232.368942,110.106567 
	C232.479736,97.615234 232.398788,85.122200 232.399719,72.629898 
	C232.399826,71.316650 232.399719,70.003403 232.399719,68.338928 
	C236.541809,68.338928 240.444199,68.338928 245.012177,68.338928 
	C245.012177,70.847557 245.012222,73.604851 245.012161,76.362144 
	C245.011917,88.188202 245.074677,100.014839 244.965073,111.839882 
	C244.939148,114.637718 244.334213,117.430183 243.926361,120.625519 
z"/>
<path fill="#FEFEFE" opacity="1.000000" stroke="none" 
	d="
M304.988251,132.000214 
	C302.377777,132.000214 300.258301,132.000214 297.968811,132.000214 
	C297.968811,117.299538 297.968811,103.048355 297.968811,87.817200 
	C306.896088,87.340073 315.734985,86.867676 324.865967,86.379669 
	C324.865967,90.614067 324.865967,94.185005 324.865967,97.946716 
	C320.172913,98.224655 315.581085,98.496597 310.603455,98.791389 
	C310.603455,109.816071 310.603455,120.549980 310.603455,132.000198 
	C308.628571,132.000198 307.053925,132.000198 304.988251,132.000214 
z"/>
<path fill="#27A977" opacity="1.000000" stroke="none" 
	d="
M89.027374,127.030952 
	C91.467636,121.567604 94.037727,116.157738 96.315872,110.627594 
	C99.281166,103.429405 101.989136,96.125549 104.872528,88.892952 
	C105.366707,87.653374 106.183685,86.542488 106.851540,85.372154 
	C107.415733,85.513107 107.979927,85.654053 108.544128,85.795006 
	C108.411545,87.515266 108.667084,89.380966 108.085533,90.932991 
	C103.030060,104.425026 97.854004,117.872337 92.618057,131.295593 
	C92.089317,132.651093 90.929176,133.760315 90.062057,134.983826 
	C89.531097,134.801132 89.000145,134.618454 88.469185,134.435760 
	C88.773232,132.212692 89.077271,129.989609 89.190392,127.382774 
	C88.999466,126.999023 89.027374,127.030952 89.027374,127.030952 
z"/>
<path fill="#21986D" opacity="1.000000" stroke="none" 
	d="
M89.013710,127.015007 
	C83.927071,123.558006 78.648643,120.315880 73.765205,116.560150 
	C65.609001,110.287430 65.722900,110.158936 74.009346,103.687004 
	C77.539734,100.929688 80.947891,98.005089 84.596962,95.417953 
	C85.534958,94.752914 87.175797,95.079216 88.493759,94.950104 
	C87.983612,96.196426 87.814285,97.837761 86.905411,98.621964 
	C82.543716,102.385345 77.982071,105.916985 72.707466,110.161873 
	C77.530144,114.037056 81.994247,117.346764 86.083267,121.068581 
	C87.414726,122.280464 87.767082,124.568054 88.797318,126.697296 
	C89.027374,127.030952 88.999466,126.999023 89.013710,127.015007 
z"/>
<path fill="#22986D" opacity="1.000000" stroke="none" 
	d="
M108.887726,95.319962 
	C110.088455,94.892830 111.535301,94.230896 112.133018,94.685478 
	C118.442497,99.483932 124.616585,104.460388 131.754227,110.122467 
	C124.710159,115.745239 118.446236,120.816650 112.053673,125.720360 
	C111.508461,126.138573 110.106422,125.439819 109.102432,125.259964 
	C109.487465,124.147835 109.543076,122.653549 110.313957,121.989052 
	C113.838303,118.951157 117.571136,116.155861 121.211029,113.250793 
	C122.235573,112.433083 123.198837,111.538582 124.833778,110.121490 
	C120.606285,106.725929 116.586021,103.645721 112.754341,100.346512 
	C111.204117,99.011711 110.065536,97.198845 108.887726,95.319962 
z"/>
<path fill="#080808" opacity="1.000000" stroke="none" 
	d="
M185.236557,122.012482 
	C176.040497,120.524094 171.636765,114.507744 173.260193,106.236641 
	C174.976440,97.492561 181.585251,94.589500 193.509567,97.498787 
	C193.509567,105.185997 193.509567,112.931984 193.509567,121.122566 
	C190.871643,121.422928 188.269730,121.719185 185.236557,122.012482 
z"/>
<path fill="#060606" opacity="1.000000" stroke="none" 
	d="
M279.469421,113.460724 
	C279.793274,116.616730 279.793274,119.435394 279.793274,122.912338 
	C275.455048,122.912338 271.128052,123.414314 267.021942,122.680481 
	C265.224396,122.359253 262.660797,119.501968 262.675842,117.816154 
	C262.690308,116.192413 265.392975,113.535515 267.247772,113.205566 
	C271.096802,112.520851 275.166565,113.077232 279.469421,113.460724 
z"/>
<path fill="#060606" opacity="1.000000" stroke="none" 
	d="
M353.925262,112.660278 
	C355.830994,112.903481 357.266541,113.107712 358.684082,113.309387 
	C358.684082,116.574875 358.684082,119.514999 358.684082,123.083847 
	C354.727539,123.083847 350.946136,123.261101 347.190247,123.027824 
	C344.180328,122.840881 341.474182,121.579506 341.390686,118.054962 
	C341.306488,114.502037 343.925934,113.257767 346.981140,112.915901 
	C349.123291,112.676208 351.296021,112.709778 353.925262,112.660278 
z"/>
</svg>