<svg version="1.1" id="Layer_1" xmlns="http://www.w3.org/2000/svg" xmlns:xlink="http://www.w3.org/1999/xlink" x="0px" y="0px"
	 width="155" height="41" viewBox="0 0 155 41" enable-background="new 0 0 500 500" xml:space="preserve">
<path fill="#171810" opacity="1.000000" stroke="none" 
	d="
M469.000000,501.000000 
	C312.666718,501.000000 156.833405,501.000000 1.000084,501.000000 
	C1.000056,334.333405 1.000056,167.666824 1.000028,1.000173 
	C167.666550,1.000115 334.333099,1.000115 500.999756,1.000058 
	C500.999817,167.666519 500.999817,334.333038 500.999908,500.999756 
	C490.500000,501.000000 480.000000,501.000000 469.000000,501.000000 
M326.610046,258.006348 
	C327.188934,256.810028 327.853058,255.646896 328.333893,254.412369 
	C334.926392,237.485962 325.698914,222.977036 307.744781,222.184158 
	C302.467346,221.951096 297.170898,222.148270 291.630432,222.148270 
	C291.630432,237.270752 291.630432,251.994781 291.630432,266.848480 
	C298.226440,266.848480 304.559479,267.190765 310.837799,266.751221 
	C316.987274,266.320709 322.452820,263.931671 326.610046,258.006348 
M287.609680,246.462830 
	C287.609680,238.408112 287.609680,230.353378 287.609680,222.358276 
	C284.226288,222.358276 281.644867,222.358276 278.748657,222.358276 
	C278.748657,230.245224 278.748779,237.871582 278.748627,245.497940 
	C278.748383,259.876831 276.902191,261.250427 262.572754,256.357971 
	C262.572754,259.404449 261.467010,263.645996 262.770111,264.601105 
	C267.610535,268.148865 273.528168,268.805725 279.367188,266.882263 
	C284.301300,265.256897 286.753754,261.449707 287.215118,256.392365 
	C287.485992,253.422821 287.487183,250.428665 287.609680,246.462830 
M211.320526,244.861801 
	C206.885681,256.290070 202.450851,267.718353 198.016022,279.146637 
	C198.664169,279.382385 199.312302,279.618134 199.960434,279.853882 
	C207.424118,259.806976 215.769775,240.087677 222.767441,219.867645 
	C222.200104,219.652222 221.632767,219.436813 221.065430,219.221405 
	C217.895630,227.521439 214.725830,235.821457 211.320526,244.861801 
M226.238434,268.353699 
	C234.124039,262.182404 242.009659,256.011139 250.362930,249.473877 
	C241.624344,242.715820 233.429138,236.378006 225.233932,230.040192 
	C224.655731,230.712769 224.077530,231.385361 223.499329,232.057938 
	C224.950653,233.087112 226.433243,234.075241 227.847549,235.153000 
	C232.576202,238.756363 237.183655,242.527847 242.025253,245.970978 
	C245.756836,248.624741 245.405411,250.593781 241.891296,253.133362 
	C236.673721,256.903992 231.632675,260.929108 226.668320,265.029694 
	C225.871414,265.687927 222.647247,266.568146 226.238434,268.353699 
M187.013550,262.240723 
	C189.986191,264.397552 192.958847,266.554382 195.931503,268.711212 
	C196.245865,268.440979 196.560242,268.170776 196.874603,267.900543 
	C196.289307,266.995239 195.889374,265.855103 195.088501,265.222839 
	C190.038467,261.236023 184.890778,257.373169 179.792694,253.446808 
	C176.040298,250.556870 176.015411,248.487564 179.727905,245.610428 
	C184.814743,241.668213 189.973221,237.816956 195.001648,233.802277 
	C195.816986,233.151321 196.118393,231.856644 196.657364,230.859512 
	C188.592316,235.847137 181.629425,241.607269 174.436340,247.063980 
	C171.659653,249.170380 172.080643,250.212784 174.597519,252.075607 
	C178.705292,255.115875 182.532761,258.534912 187.013550,262.240723 
z"/>
<path fill="#F7F7F6" opacity="1.000000" stroke="none" 
	d="
M326.380737,258.291626 
	C322.452820,263.931671 316.987274,266.320709 310.837799,266.751221 
	C304.559479,267.190765 298.226440,266.848480 291.630432,266.848480 
	C291.630432,251.994781 291.630432,237.270752 291.630432,222.148270 
	C297.170898,222.148270 302.467346,221.951096 307.744781,222.184158 
	C325.698914,222.977036 334.926392,237.485962 328.333893,254.412369 
	C327.853058,255.646896 327.188934,256.810028 326.380737,258.291626 
M300.889984,258.695953 
	C303.870026,258.654083 306.888519,258.899353 309.821655,258.506989 
	C314.977173,257.817383 318.803680,255.206757 320.236816,249.874802 
	C321.733063,244.308136 321.750641,238.777252 317.573883,234.420868 
	C312.822601,229.465317 306.550842,230.255280 300.316040,230.551590 
	C300.316040,240.066635 300.316040,249.023315 300.889984,258.695953 
z"/>
<path fill="#F7F7F6" opacity="1.000000" stroke="none" 
	d="
M287.609680,246.954208 
	C287.487183,250.428665 287.485992,253.422821 287.215118,256.392365 
	C286.753754,261.449707 284.301300,265.256897 279.367188,266.882263 
	C273.528168,268.805725 267.610535,268.148865 262.770111,264.601105 
	C261.467010,263.645996 262.572754,259.404449 262.572754,256.357971 
	C276.902191,261.250427 278.748383,259.876831 278.748627,245.497940 
	C278.748779,237.871582 278.748657,230.245224 278.748657,222.358276 
	C281.644867,222.358276 284.226288,222.358276 287.609680,222.358276 
	C287.609680,230.353378 287.609680,238.408112 287.609680,246.954208 
z"/>
<path fill="#F7F7F6" opacity="1.000000" stroke="none" 
	d="
M211.438293,244.491638 
	C214.725830,235.821457 217.895630,227.521439 221.065430,219.221405 
	C221.632767,219.436813 222.200104,219.652222 222.767441,219.867645 
	C215.769775,240.087677 207.424118,259.806976 199.960434,279.853882 
	C199.312302,279.618134 198.664169,279.382385 198.016022,279.146637 
	C202.450851,267.718353 206.885681,256.290070 211.438293,244.491638 
z"/>
<path fill="#F7F7F6" opacity="1.000000" stroke="none" 
	d="
M226.014709,268.448059 
	C222.647247,266.568146 225.871414,265.687927 226.668320,265.029694 
	C231.632675,260.929108 236.673721,256.903992 241.891296,253.133362 
	C245.405411,250.593781 245.756836,248.624741 242.025253,245.970978 
	C237.183655,242.527847 232.576202,238.756363 227.847549,235.153000 
	C226.433243,234.075241 224.950653,233.087112 223.499329,232.057938 
	C224.077530,231.385361 224.655731,230.712769 225.233932,230.040192 
	C233.429138,236.378006 241.624344,242.715820 250.362930,249.473877 
	C242.009659,256.011139 234.124039,262.182404 226.014709,268.448059 
z"/>
<path fill="#F7F7F6" opacity="1.000000" stroke="none" 
	d="
M186.746017,262.017426 
	C182.532761,258.534912 178.705292,255.115875 174.597519,252.075607 
	C172.080643,250.212784 171.659653,249.170380 174.436340,247.063980 
	C181.629425,241.607269 188.592316,235.847137 196.657364,230.859512 
	C196.118393,231.856644 195.816986,233.151321 195.001648,233.802277 
	C189.973221,237.816956 184.814743,241.668213 179.727905,245.610428 
	C176.015411,248.487564 176.040298,250.556870 179.792694,253.446808 
	C184.890778,257.373169 190.038467,261.236023 195.088501,265.222839 
	C195.889374,265.855103 196.289307,266.995239 196.874603,267.900543 
	C196.560242,268.170776 196.245865,268.440979 195.931503,268.711212 
	C192.958847,266.554382 189.986191,264.397552 186.746017,262.017426 
z"/>
<path fill="#171810" opacity="1.000000" stroke="none" 
	d="
M300.603027,258.337952 
	C300.316040,249.023315 300.316040,240.066635 300.316040,230.551590 
	C306.550842,230.255280 312.822601,229.465317 317.573883,234.420868 
	C321.750641,238.777252 321.733063,244.308136 320.236816,249.874802 
	C318.803680,255.206757 314.977173,257.817383 309.821655,258.506989 
	C306.888519,258.899353 303.870026,258.654083 300.603027,258.337952 
z"/>
</svg>